<svg id="Capa_1" data-name="Capa 1" xmlns="http://www.w3.org/2000/svg" viewBox="0 0 939.66 939.66"><path d="M786.2,715.53s52.14,14.39,79.25,0l17.73,2.72,4.66,3.67-4,6.51-7.95,4.34L867,735.55S819.15,737.44,786.2,715.53Z" transform="translate(-499.5 -67.01)" fill="#fa1d24"/><path d="M773.38,667.71s41.54,34.65,72.17,32.74l15,9.8,2.72,5.28-6.36,4.26-9,.66-9.19-1.11S794.34,701.27,773.38,667.71Z" transform="translate(-499.5 -67.01)" fill="#fd0"/><path d="M766.62,692.24s52.47,25.41,84,15.08l18.25,6.3,4.23,4.85-5.53,6.24-9.27,3.16-9.9,1.31S797.3,722.1,766.62,692.24Z" transform="translate(-499.5 -67.01)" fill="#034ea2"/><path d="M1146.33,720.28s-52.14,14.39-79.26,0L1049.35,723l-4.66,3.68,4,6.51,8,4.34,8.84,2.78S1113.38,742.19,1146.33,720.28Z" transform="translate(-499.5 -67.01)" fill="#fa1d24"/><path d="M1159.14,672.46s-41.53,34.65-72.17,32.75l-15,9.8-2.72,5.27,6.36,4.26,9,.67,9.2-1.12S1138.19,706,1159.14,672.46Z" transform="translate(-499.5 -67.01)" fill="#fd0"/><path d="M1165.9,697s-52.46,25.42-84,15.08l-18.26,6.3-4.23,4.85,5.54,6.24,9.26,3.16,9.9,1.31S1135.22,726.85,1165.9,697Z" transform="translate(-499.5 -67.01)" fill="#034ea2"/><path d="M1030.93,386.75c4.09-5.55,34.5-45.53,82.74-45.41,0,0,34.26.18,62.93,24.91,43.51,37.52,48.09,122.57,13.06,212.44A299.71,299.71,0,0,1,1166.32,615a283.77,283.77,0,0,1-78.07,71.74c-17.06,11-31.26,20-52.53,26.4a166.25,166.25,0,0,1-23.42,5.25L1000.69,721H985.92" transform="translate(-499.5 -67.01)" fill="none" stroke="#fa1d24" stroke-miterlimit="10" stroke-width="10"/><path d="M1027.77,376.86c3.3-4.51,33.8-44.68,84.79-44.57,36,.08,61.11,20.23,68.3,26.5,14.75,12.88,22,26.6,26,34.25,14.87,28.7,14.82,55.23,14.77,79.95a264.59,264.59,0,0,1-9,66,240.81,240.81,0,0,1-15.34,43c-17.42,36.93-40.4,60-52.62,72a302,302,0,0,1-45.49,36.4,208.22,208.22,0,0,1-21.37,12.66c-15.35,7.78-27.25,11.12-51,17.8-9.81,2.75-16.92,4.44-26.11,5.14a111.63,111.63,0,0,1-17,0,55.43,55.43,0,0,0-13.45-2.37,53.83,53.83,0,0,0-5.54,0" transform="translate(-499.5 -67.01)" fill="none" stroke="#034ea2" stroke-miterlimit="10" stroke-width="10"/><path d="M1019.45,371.32c35.93-38.87,85.58-55.82,128-42.59,38.78,12.08,58.2,45.16,64.35,55.65,26.7,45.47,18.67,95.55,12.14,136.35-2.42,15.06-5.71,34.78-15.83,59.08-19.91,47.79-50.8,76.13-66.46,90.19a284.52,284.52,0,0,1-76.42,49c-6.09,2.24-12.62,4.39-19.58,6.37a280.77,280.77,0,0,1-33.76,7.38" transform="translate(-499.5 -67.01)" fill="none" stroke="#fd0" stroke-miterlimit="10" stroke-width="10"/><path d="M912.53,386c-4.09-5.55-34.51-45.53-82.74-45.4,0,0-34.26.17-62.94,24.9C723.35,403,718.77,488,753.8,577.91a299.74,299.74,0,0,0,23.34,36.27,284,284,0,0,0,78.07,71.73c17.06,11,31.26,20,52.53,26.4a164.84,164.84,0,0,0,23.42,5.25l11.61,2.64h14.77" transform="translate(-499.5 -67.01)" fill="none" stroke="#fa1d24" stroke-miterlimit="10" stroke-width="10"/><path d="M915.69,376.08c-3.3-4.51-33.8-44.68-84.79-44.57-36,.08-61.11,20.23-68.31,26.51-14.74,12.87-22,26.59-26,34.24-14.87,28.7-14.82,55.23-14.77,79.95a264.88,264.88,0,0,0,9,66,241.05,241.05,0,0,0,15.35,43c17.42,36.93,40.4,60,52.62,72a302,302,0,0,0,45.49,36.4,206.19,206.19,0,0,0,21.36,12.66c15.36,7.79,27.25,11.13,51,17.8,9.8,2.75,16.92,4.44,26.11,5.14a111.63,111.63,0,0,0,17,0,55.91,55.91,0,0,1,13.45-2.37,53.83,53.83,0,0,1,5.54,0" transform="translate(-499.5 -67.01)" fill="none" stroke="#034ea2" stroke-miterlimit="10" stroke-width="10"/><path d="M924,370.54c-35.93-38.87-85.59-55.82-128-42.59-38.78,12.08-58.2,45.16-64.36,55.65-26.69,45.47-18.67,95.55-12.13,136.35,2.42,15.06,5.7,34.78,15.83,59.08,19.91,47.79,50.8,76.13,66.46,90.2a284.6,284.6,0,0,0,76.42,49c6.09,2.23,12.62,4.38,19.58,6.36A278.44,278.44,0,0,0,931.52,732" transform="translate(-499.5 -67.01)" fill="none" stroke="#fd0" stroke-miterlimit="10" stroke-width="10"/><path d="M953.34,409.58" transform="translate(-499.5 -67.01)" fill="none" stroke="#000" stroke-miterlimit="10"/><rect x="313.34" y="343.23" width="329.67" height="124.48" fill="#fbfbfb"/><path d="M906,415.21" transform="translate(-499.5 -67.01)" fill="#040303"/><path d="M1030.09,385.43s46-47.57,55.2-6.85-55.2,9.06-55.2,9.06" transform="translate(-499.5 -67.01)" fill="#fff" stroke="#000" stroke-miterlimit="10"/><rect x="313.87" y="311.84" width="80.7" height="41.67" fill="#040303"/><rect x="508.5" y="317.65" width="130.29" height="40.35" fill="#040303"/><line x1="467.26" y1="357.43" x2="466.62" y2="383.53" fill="#040303" stroke="#000" stroke-miterlimit="10"/><text transform="translate(335.17 778.18) rotate(21.66) scale(1.02 1)" font-size="60" stroke="#000" stroke-miterlimit="10" stroke-width="3" font-family="MyriadPro-Regular, Myriad Pro">E</text><text transform="matrix(0.98, 0.27, -0.27, 0.96, 365.62, 790.27)" font-size="60" stroke="#000" stroke-miterlimit="10" stroke-width="3" font-family="MyriadPro-Regular, Myriad Pro">C</text><text transform="translate(402.71 800.52) rotate(8.57) scale(1.02 1)" font-size="60" stroke="#000" stroke-miterlimit="10" stroke-width="3" font-family="MyriadPro-Regular, Myriad Pro">U</text><text transform="translate(442.66 806.41) rotate(1.88) scale(1.02 1)" font-size="60" stroke="#000" stroke-miterlimit="10" stroke-width="3" font-family="MyriadPro-Regular, Myriad Pro">A</text><text transform="translate(483.16 807.65) rotate(-5.24) scale(1.02 1)" font-size="60" stroke="#000" stroke-miterlimit="10" stroke-width="3" font-family="MyriadPro-Regular, Myriad Pro">D</text><text transform="matrix(0.99, -0.23, 0.22, 0.97, 527.02, 803.45)" font-size="60" stroke="#000" stroke-miterlimit="10" stroke-width="3" font-family="MyriadPro-Regular, Myriad Pro">O</text><text transform="translate(570.9 792.91) rotate(-19.91) scale(1.02 1)" font-size="60" stroke="#000" stroke-miterlimit="10" stroke-width="3" font-family="MyriadPro-Regular, Myriad Pro">R</text><circle cx="470.03" cy="476.88" r="340.42" fill="none" stroke="#fff95f" stroke-miterlimit="10" stroke-width="9"/><ellipse cx="469.92" cy="476.68" rx="334.24" ry="333.49" fill="none" stroke="#000" stroke-miterlimit="10" stroke-width="3"/><circle cx="468.28" cy="476.68" r="346.55" fill="none" stroke="#000" stroke-miterlimit="10" stroke-width="3"/><circle cx="469.83" cy="469.83" r="462.33" fill="none" stroke="#c79426" stroke-miterlimit="10" stroke-width="15"/><ellipse cx="469.68" cy="469.43" rx="446.57" ry="445.83" fill="none" stroke="#ffe94c" stroke-miterlimit="10" stroke-width="18"/><text transform="matrix(0.63, 0.8, -0.79, 0.62, 139.57, 707.74)" font-size="60" font-family="MyriadPro-Regular, Myriad Pro"> </text><text transform="matrix(0.66, 0.78, -0.76, 0.64, 148.1, 718.56)" font-size="60" font-family="MyriadPro-Regular, Myriad Pro"> </text><text transform="matrix(0.68, 0.76, -0.74, 0.67, 156.99, 729.07)" font-size="60" font-family="MyriadPro-Regular, Myriad Pro"> </text><text transform="translate(166.2 739.28) rotate(46.1) scale(1.02 1)" font-size="60" font-family="MyriadPro-Regular, Myriad Pro"> </text><text transform="matrix(0.73, 0.71, -0.7, 0.72, 175.77, 749.2)" font-size="60" font-family="MyriadPro-Regular, Myriad Pro"> </text><text transform="translate(185.63 758.77) rotate(42.33) scale(1.02 1)" font-size="60" font-family="MyriadPro-Regular, Myriad Pro"> </text><text transform="matrix(0.79, 0.64, -0.63, 0.78, 196.12, 768.67)" font-size="60" font-family="MyriadPro-Regular, Myriad Pro">R</text><text transform="matrix(0.84, 0.57, -0.56, 0.83, 223.3, 790.48)" font-size="60" font-family="MyriadPro-Regular, Myriad Pro">E</text><text transform="matrix(0.89, 0.5, -0.49, 0.87, 249.9, 808.86)" font-size="60" font-family="MyriadPro-Regular, Myriad Pro">D</text><text transform="matrix(0.92, 0.43, -0.43, 0.9, 287.11, 829.05)" font-size="60" font-family="MyriadPro-Regular, Myriad Pro"> </text><text transform="matrix(0.94, 0.38, -0.37, 0.93, 300.14, 835.52)" font-size="60" font-family="MyriadPro-Regular, Myriad Pro">C</text><text transform="matrix(0.97, 0.29, -0.29, 0.96, 335.14, 849.28)" font-size="60" font-family="MyriadPro-Regular, Myriad Pro">R</text><text transform="matrix(0.99, 0.23, -0.23, 0.97, 368.14, 858.81)" font-size="60" font-family="MyriadPro-Regular, Myriad Pro">I</text><text transform="translate(383.72 862.63) rotate(9.84) scale(1.02 1)" font-size="60" font-family="MyriadPro-Regular, Myriad Pro">S</text><text transform="translate(415.29 868.03) rotate(5.41) scale(1.02 1)" font-size="60" font-family="MyriadPro-Regular, Myriad Pro">T</text><text transform="matrix(1.02, 0.04, -0.04, 1, 446.93, 870.76)" font-size="60" font-family="MyriadPro-Regular, Myriad Pro">I</text><text transform="matrix(1.02, -0.03, 0.03, 1, 463.03, 871.68)" font-size="60" font-family="MyriadPro-Regular, Myriad Pro">A</text><text transform="matrix(1.01, -0.13, 0.13, 0.99, 502.86, 870.53)" font-size="60" font-family="MyriadPro-Regular, Myriad Pro">N</text><text transform="translate(545.18 864.97) rotate(-12.93) scale(1.02 1)" font-size="60" font-family="MyriadPro-Regular, Myriad Pro">A</text><text transform="translate(583.04 855.82) rotate(-16.65) scale(1.02 1)" font-size="60" font-family="MyriadPro-Regular, Myriad Pro"> </text><text transform="translate(597.59 852.14) rotate(-21.24) scale(1.02 1)" font-size="60" font-family="MyriadPro-Regular, Myriad Pro">M</text><text transform="translate(644.93 832.89) rotate(-25.94) scale(1.02 1)" font-size="60" font-family="MyriadPro-Regular, Myriad Pro">I</text><text transform="translate(659.37 826.04) rotate(-29.13) scale(1.02 1)" font-size="60" font-family="MyriadPro-Regular, Myriad Pro">L</text><text transform="matrix(0.86, -0.54, 0.53, 0.85, 685.65, 811.13)" font-size="60" font-family="MyriadPro-Regular, Myriad Pro">I</text><text transform="matrix(0.83, -0.59, 0.58, 0.81, 699.28, 802.72)" font-size="60" font-family="MyriadPro-Regular, Myriad Pro">T</text><text transform="translate(721.88 786.82) rotate(-39.88) scale(1.02 1)" font-size="60" font-family="MyriadPro-Regular, Myriad Pro">A</text><text transform="matrix(0.72, -0.72, 0.71, 0.71, 752.15, 761.26)" font-size="60" font-family="MyriadPro-Regular, Myriad Pro">R</text><ellipse cx="471.98" cy="470.07" rx="420.12" ry="419.18" fill="none" stroke="#fff95f" stroke-miterlimit="10" stroke-width="9"/><ellipse cx="471.84" cy="469.83" rx="412.49" ry="410.66" fill="none" stroke="#000" stroke-miterlimit="10" stroke-width="3"/><ellipse cx="469.83" cy="469.83" rx="427.68" ry="426.73" fill="none" stroke="#000" stroke-miterlimit="10" stroke-width="3"/><path d="M911.21,372.39s-7.59-2.35-12.57,1.8c-2.59,2.17-3.19,5.28-4.24,11.45a61.41,61.41,0,0,0,1.08,27.1c.49,1.7,1,3.07,1.29,4q1.63,2.87,3.26,5.73a25.54,25.54,0,0,0,11.87,10.39,24.66,24.66,0,0,0,9.59,1.88l5.35.69,9.69,1.09h26.9a87.73,87.73,0,0,0,30.06-3.76c3.92-2.31,7.1-4.42,9.4-6a106.55,106.55,0,0,0,14.54-11.59c2.05-2,3.64-3.72,4.68-4.88a81.83,81.83,0,0,0,6.69-10c1.35-2.36,2.49-4.64,3.46-6.79q3-5.53,6.07-11.08l10.75-12.2c4.77-3.14,4.56-4.42,4.45-4.74-.28-.79-1.67-.81-7.52-1.14-7.17-.41-8.11-.55-9.79.15s-3.22,1.75-5.27,4.35l-5.87,7.45-4.09,6.26c-.87,1.23-2.3,3.26-4,5.82-5.71,8.57-6.23,10.45-9.84,15a53.72,53.72,0,0,1-8.35,8.65,51.07,51.07,0,0,1-10.24,6.48A57,57,0,0,1,966,423.72c-3.37,0-7.2-.28-16.32-.3-4.16,0-7.59.05-9.89.1l-9.59-2.77S913.38,416.8,909,406c0,0-3.06-11.08-2.27-19.29C906.76,386.73,912.63,372.72,911.21,372.39Z" transform="translate(-499.5 -67.01)" fill="#ededed" stroke="#000" stroke-miterlimit="10"/><circle cx="401.48" cy="319.28" r="4.2" fill="#fff" stroke="#070707" stroke-miterlimit="10"/><circle cx="404.49" cy="343.06" r="3.86" fill="#fff" stroke="#070707" stroke-miterlimit="10"/><circle cx="419.18" cy="359.14" r="4.5" fill="#fff" stroke="#070707" stroke-miterlimit="10"/><circle cx="503.45" cy="353.01" r="3.91" fill="#fff" stroke="#070707" stroke-miterlimit="10"/><circle cx="513.68" cy="340.69" r="4.05" fill="#fff" stroke="#070707" stroke-miterlimit="10"/><circle cx="526.83" cy="321.21" r="3.16" fill="#fff" stroke="#070707" stroke-miterlimit="10"/><circle cx="541.08" cy="303.21" r="3.56" fill="#fff" stroke="#070707" stroke-miterlimit="10"/><path d="M1039.25,292.61" transform="translate(-499.5 -67.01)" fill="#fff" stroke="#000" stroke-miterlimit="10"/><rect x="442.81" y="357.4" width="11.3" height="15.63" fill="#fff"/><rect x="457.16" y="357.4" width="23.07" height="14.9" fill="#fff"/><path d="M932.57,612.92" transform="translate(-499.5 -67.01)" fill="#fff" stroke="#000" stroke-miterlimit="10"/><path d="M962.07,612.88a68.38,68.38,0,0,1-9.85,1.55,70.27,70.27,0,0,1-20.57-1.32c.36,26.29-7.15,46.16-20.23,50.64-4.74,1.62-8.75.73-16.61-1-9.53-2.12-18.54-6-46.5-26.67-13.79-10.18-19.41-15-20.67-18.67a4.64,4.64,0,0,1-.17-2.69c.41-1.78,8.29-6.67,10.74-7.34l-59.79-43.3q-.4,34.82-.79,69.62L803,628.15l19.78,24.79c4.38,5.24,9.37,10.74,15,16.35a236.52,236.52,0,0,0,20.31,17.93A141,141,0,0,0,896.2,709a143,143,0,0,0,61.51,8.73Z" transform="translate(-499.5 -67.01)"/><line x1="455.76" y1="357.47" x2="452.84" y2="617.77" fill="#040303" stroke="#000" stroke-miterlimit="10" stroke-width="3"/><path d="M969.23,610.62h27.69s-.39,63.3,39.56,49.85,71.61-49.85,71.61-49.85l-16.62-4.35,45.5-42.72,20.57,57-21-3.57s-17,31.06-22.55,35.41a121.81,121.81,0,0,1-37.43,35.1,184.28,184.28,0,0,1-103,28Z" transform="translate(-499.5 -67.01)"/><rect x="442.78" y="538.16" width="38.6" height="83.8" fill="#fff"/><line x1="457.67" y1="609.6" x2="457.27" y2="564.97" fill="#040303" stroke="#000" stroke-miterlimit="10" stroke-width="2"/><line x1="465.78" y1="387.18" x2="465.78" y2="618.57" fill="#040303" stroke="#000" stroke-miterlimit="10" stroke-width="3"/><line x1="472.46" y1="612.5" x2="472.46" y2="547.62" fill="#040303" stroke="#000" stroke-miterlimit="10"/><line x1="481.56" y1="351.51" x2="485.44" y2="617.46" fill="#040303" stroke="#000" stroke-miterlimit="10" stroke-width="3"/><line x1="442.11" y1="617.97" x2="483.11" y2="618.2" fill="none" stroke="#1f1f1e" stroke-miterlimit="10"/><path d="M953.63,686.9s10.83-2.77,21.26.19C974.89,687.09,964,690.28,953.63,686.9Z" transform="translate(-499.5 -67.01)" fill="#fff" stroke="#000" stroke-miterlimit="10"/><line x1="486.88" y1="350.61" x2="486.88" y2="567.59" fill="#040303" stroke="#000" stroke-miterlimit="10" stroke-width="11"/><line x1="437.29" y1="354.83" x2="437.29" y2="567.59" fill="#040303" stroke="#000" stroke-miterlimit="10" stroke-width="11"/><line x1="456.68" y1="611.71" x2="458.66" y2="613.89" fill="#040303" stroke="#000" stroke-miterlimit="10"/><path d="M820.22,622.94A164.36,164.36,0,0,0,915,682a8,8,0,0,0,3.83,3.56c.13,0,2.82,1.11,3.56.13.46-.61-.07-1.72-.13-1.85-.56-1.12-1.4-.9-2.25-2a6.65,6.65,0,0,1-1-3.56c-.13-1.19.06-1.31-.13-1.71-.73-1.52-4.16-1.21-5.94-1.19-1.56,0-4.78-1-11.21-3.16a189.84,189.84,0,0,1-24.2-9.3c-6.76-3.21-14.29-6.78-22.87-13.25a214.23,214.23,0,0,1-27.56-24.53c-1.48-1.64-5.61-6.3-6.86-5.54C819.6,620,819.88,621.63,820.22,622.94Z" transform="translate(-499.5 -67.01)" fill="#fff"/><polygon points="311.23 552.55 332.86 540.5 286.7 505.95 311.23 552.55" fill="#fff"/><path d="M999.45,687c1.77-.18,4.35-.48,7.44-1a121.67,121.67,0,0,0,22.95-6.41c14.08-5.13,21.12-7.69,27.21-10.53,25.46-11.85,47-33.74,54.41-41.54a4.28,4.28,0,0,0-1.21-4.41,5.11,5.11,0,0,0-5.93-.43,155.58,155.58,0,0,1-13.38,14.51,162.09,162.09,0,0,1-20.51,16.65l-16.12,10-39.66,14.94-7.3,1.28-11,.34a3.83,3.83,0,0,0-.84,5.21A4.24,4.24,0,0,0,999.45,687Z" transform="translate(-499.5 -67.01)" fill="#fff"/><polygon points="626.84 546.33 649.39 548.44 635.94 502.16 626.84 546.33" fill="#fff"/><rect x="426.38" y="627.66" width="79.49" height="23.48"/><path d="M926.08,675.29s35.08,27,70.95,4.52c0,0,7.22-.88,2.86,5.16,0,0-18,14.06-26.73,9.18l-32.44-.27s-19.12-10.55-19.65-15.16S920.67,673.58,926.08,675.29Z" transform="translate(-499.5 -67.01)" fill="#fff" stroke="#000" stroke-miterlimit="10"/><path d="M960.47,694.08s-4.48,1.85-2.37,4.22c1.52,1.72,5.28,1.83,6.85,0a3.33,3.33,0,0,0,.6-1c.15-1.06.3-2.11.46-3.17Z" transform="translate(-499.5 -67.01)" fill="#fff" stroke="#000" stroke-miterlimit="10"/><path d="M971.41,694.77a3.28,3.28,0,0,0-3.17,2.5c-.2,1.77,2.11,2.88,2.57,3.1a6.08,6.08,0,0,0,5.41-.39c.64-.37,2-1.15,2-2.25s-1.67-2-2.38-2.37A7.38,7.38,0,0,0,971.41,694.77Z" transform="translate(-499.5 -67.01)" fill="#fff" stroke="#000" stroke-miterlimit="10"/><line x1="474.81" y1="693.47" x2="474.81" y2="692.47" fill="#fff" stroke="#000" stroke-miterlimit="10"/><path d="M962.44,765" transform="translate(-499.5 -67.01)" fill="#fff" stroke="#000" stroke-miterlimit="10"/><path d="M961.9,764.48" transform="translate(-499.5 -67.01)" fill="#fff" stroke="#000" stroke-miterlimit="10"/><path d="M929.6,692.24a50.72,50.72,0,0,0,11.08,5.34" transform="translate(-499.5 -67.01)" fill="#fff" stroke="#fff" stroke-miterlimit="10"/><path d="M935.34,696" transform="translate(-499.5 -67.01)" fill="#fff" stroke="#000" stroke-miterlimit="10"/><polyline points="318.84 560.04 323.39 566.37 328.93 570.92" fill="#fff" stroke="#fff" stroke-miterlimit="10"/><line x1="340.74" y1="580.99" x2="351.81" y2="590.68" fill="#fff" stroke="#fff" stroke-miterlimit="10"/><path d="M859.64,664.94s12.46,8.31,16.22,8.9" transform="translate(-499.5 -67.01)" fill="#fff" stroke="#fff" stroke-miterlimit="10"/><path d="M887,681.17s16.7,7.27,19.24,7.12" transform="translate(-499.5 -67.01)" fill="#fff" stroke="#fff" stroke-miterlimit="10"/><line x1="493.6" y1="630.57" x2="497.76" y2="627.9" fill="#fff" stroke="#fff" stroke-miterlimit="10"/><line x1="501.91" y1="626.61" x2="506.06" y2="623.94" fill="#fff" stroke="#fff" stroke-miterlimit="10"/><line x1="513.08" y1="620.67" x2="510.57" y2="623.25" fill="#fff" stroke="#fff" stroke-miterlimit="10"/><path d="M956.18,723.29s-8.48-13.45-81.32,0l-103.7,78.33s185.94-33.23,174.86,0h40.62a15.55,15.55,0,0,1,1.58-4c10.07-17.56,53.74-10.74,90.46-5,24.2,3.78,44.58,8.76,78.86,9H1162L1066.48,728s-86.44-22.95-89.6-2.38c-.37,2.43-1.28,7-4.43,8.26C968,735.67,961.24,729.14,956.18,723.29Z" transform="translate(-499.5 -67.01)" fill="#fff" stroke="#000" stroke-miterlimit="10" stroke-width="3"/><path d="M965.52,762.55a4.72,4.72,0,0,1-1.4,1.59A4.81,4.81,0,0,1,962,765a4.52,4.52,0,0,1-2.67-1.09,4.21,4.21,0,0,1-1-1.34V701.63h7.25Z" transform="translate(-499.5 -67.01)" fill="#fff" stroke="#000" stroke-miterlimit="10"/><path d="M976.84,762.6a4,4,0,0,1-7.25,0V701.68h7.25Z" transform="translate(-499.5 -67.01)" fill="#fff" stroke="#000" stroke-miterlimit="10"/><path d="M790.16,795.17,821.81,771s96.1-28.48,134.88,2c0,0,13.5,19-4.47,17.8,0,0-9.05-7.52-42.63-10.68S790.16,795.17,790.16,795.17Z" transform="translate(-499.5 -67.01)" fill="none" stroke="#000" stroke-miterlimit="10"/><path d="M1144.61,795.29,1113,771.16s-96.09-28.48-134.88,2c0,0-13.5,19,4.48,17.8,0,0,9-7.52,42.63-10.68S1144.61,795.29,1144.61,795.29Z" transform="translate(-499.5 -67.01)" fill="none" stroke="#000" stroke-miterlimit="10"/><line x1="468.15" y1="666.9" x2="468.01" y2="735.14" fill="#fff" stroke="#000" stroke-miterlimit="10" stroke-width="2"/><path d="M808.81,781.68s57.34-6.59,67.05-6.07" transform="translate(-499.5 -67.01)" fill="#fff" stroke="#000" stroke-miterlimit="10" stroke-width="0.75"/><path d="M813.71,777.27a112,112,0,0,1,22.24-2.2" transform="translate(-499.5 -67.01)" fill="#fff" stroke="#000" stroke-miterlimit="10" stroke-width="0.75"/><path d="M802.12,786.22s41.23-6.71,42.33-4.54" transform="translate(-499.5 -67.01)" fill="#fff" stroke="#000" stroke-miterlimit="10" stroke-width="0.75"/><path d="M794.94,792.05s26.69-8.76,47.39-7.94" transform="translate(-499.5 -67.01)" fill="#fff" stroke="#000" stroke-miterlimit="10" stroke-width="0.75"/><polyline points="319.14 706.6 347.9 702.12 374.94 698.81 383.79 697.01 388.12 696.75" fill="#fff" stroke="#000" stroke-miterlimit="10" stroke-width="0.75"/><path d="M1118.2,775.19c-14.59-3.42-30.69-6.48-48.16-8.78-13.83-1.82-26.93-2.94-39.16-3.56" transform="translate(-499.5 -67.01)" fill="#fff" stroke="#000" stroke-miterlimit="10" stroke-width="0.75"/><path d="M1121.77,778.13a144.15,144.15,0,0,0-35-4.79" transform="translate(-499.5 -67.01)" fill="#fff" stroke="#000" stroke-miterlimit="10" stroke-width="0.75"/><path d="M1129.88,784.05" transform="translate(-499.5 -67.01)" fill="#fff" stroke="#000" stroke-miterlimit="10" stroke-width="3"/><path d="M1126.19,782.09a393.92,393.92,0,0,0-43.68-6.38c-10.88-1-21.2-1.43-30.86-1.54" transform="translate(-499.5 -67.01)" fill="#fff" stroke="#000" stroke-miterlimit="10" stroke-width="0.75"/><path d="M1138.76,790.4q-18.4-3.51-38.45-6.38-15.76-2.24-30.66-3.76" transform="translate(-499.5 -67.01)" fill="#fff" stroke="#000" stroke-miterlimit="10" stroke-width="0.75"/><path d="M958.27,790.72a87.59,87.59,0,0,0-30-13.06" transform="translate(-499.5 -67.01)" fill="#fff" stroke="#000" stroke-miterlimit="10" stroke-width="0.75"/><path d="M957.74,789.85a62.7,62.7,0,0,0-13-10.52,63.58,63.58,0,0,0-8.22-4.2" transform="translate(-499.5 -67.01)" fill="#fff" stroke="#000" stroke-miterlimit="10" stroke-width="0.75"/><path d="M958.27,790.37a51.42,51.42,0,0,0-15-15" transform="translate(-499.5 -67.01)" fill="#fff" stroke="#000" stroke-miterlimit="10" stroke-width="0.75"/><path d="M958.27,789.85a24.08,24.08,0,0,0-11.6-16.9" transform="translate(-499.5 -67.01)" fill="#fff" stroke="#000" stroke-miterlimit="10" stroke-width="0.75"/><path d="M958.77,790.16a16.35,16.35,0,0,0-.09-8.91,16.52,16.52,0,0,0-6.33-8.71" transform="translate(-499.5 -67.01)" fill="#fff" stroke="#000" stroke-miterlimit="10" stroke-width="0.75"/><rect x="446.72" y="729.08" width="40.85" height="5.55" fill="#020202" stroke="#000" stroke-miterlimit="10" stroke-width="3"/><path d="M979.78,790.72A63.37,63.37,0,0,1,997.9,780c1.37-.52,2.72-1,4-1.38" transform="translate(-499.5 -67.01)" fill="#fff" stroke="#000" stroke-miterlimit="10" stroke-width="0.75"/><path d="M978.93,790.57a58.31,58.31,0,0,1,28-19.54" transform="translate(-499.5 -67.01)" fill="#fff" stroke="#000" stroke-miterlimit="10" stroke-width="0.75"/><path d="M978.24,790.54a67.14,67.14,0,0,1,19.41-20.37" transform="translate(-499.5 -67.01)" fill="#fff" stroke="#000" stroke-miterlimit="10" stroke-width="0.75"/><path d="M978.26,790.68a28.22,28.22,0,0,1,4.7-10.32,37.53,37.53,0,0,1,2.82-3.32,50.4,50.4,0,0,1,6.33-5.73" transform="translate(-499.5 -67.01)" fill="none" stroke="#000" stroke-miterlimit="10" stroke-width="0.75"/><path d="M977.1,790.63a23.56,23.56,0,0,1,5.47-15.32,22.27,22.27,0,0,1,6.92-5.34" transform="translate(-499.5 -67.01)" fill="none" stroke="#000" stroke-miterlimit="10" stroke-width="0.75"/><path d="M911,373c-6.42,15.29-6.4,31.71,2.06,41.46,8.17,9.4,22.37,10.48,34.64,11.4a88,88,0,0,0,18.74-.58l20.87-6.13,14.39-6.69q6.24-8.87,12.47-17.72l14.16-21.33q5.14-5.31,10.3-10.6s2.45-2.14,1.88-3.41c-.92-2.05-9.4,0-10.12.19-8.67,2.15-14,6.59-19,10.19a114.3,114.3,0,0,1-22.21,12.35,28.64,28.64,0,0,0-8.88,1.08c-5.76,1.67-9,4.66-12,6.64-4,2.72-10.4,5.54-20.56,5.69-12.39,1.71-23.44-3.13-27.55-11.65a19.91,19.91,0,0,1-1.5-11.69Z" transform="translate(-499.5 -67.01)" fill="#ededed" stroke="#000" stroke-miterlimit="10"/><path d="M829.61,560.33" transform="translate(-499.5 -67.01)" fill="none" stroke="#000" stroke-miterlimit="10"/><path d="M795.73,427.71s-29.45,13.21,7.46,19.61,16.26-19.61,16.26-19.61Z" transform="translate(-499.5 -67.01)" fill="#bda127" stroke="#000" stroke-miterlimit="10"/><path d="M868,575a6.79,6.79,0,0,0,3.32,3.42c2.7,1,5.46-.87,7.85-2.38,14.41-9.13,19.08-9.43,23.35-16.83a28.62,28.62,0,0,0,1.31-2.59,55.19,55.19,0,0,0,4-14.76,55.75,55.75,0,0,0,.41-8.19l-2.71-7-9-.42-8.18,8.49C884.9,539.28,864.32,567.57,868,575Z" transform="translate(-499.5 -67.01)" fill="#d3b738" stroke="#000" stroke-miterlimit="10"/><path d="M833.76,597.92" transform="translate(-499.5 -67.01)" fill="none" stroke="#000" stroke-miterlimit="10"/><path d="M833.21,559.16s.75,11.67,8.64,15.86c2.56,1.36,7,.92,11.25.82.69,0,2.36-.08,4.5-.34a25.79,25.79,0,0,0,6.13-1.25,20.92,20.92,0,0,0,4.22-2.09,29,29,0,0,0,9.67-7.93q2.52-4,5-8.08c1.58-2.87,3.15-6,4.63-9.33.48-1.07.93-2.14,1.36-3.2q1.35-3.09,2.69-6.18l4.53-7.74,3.27-3.62-6.68-3.34L880.89,519l-4.9-3-5.39.25a50.42,50.42,0,0,1-10.69,11c-4.69,3.53-8.36,4.91-13.48,9.79A50.34,50.34,0,0,0,841,543.2l-4.5,8.91-1.63,3.21Z" transform="translate(-499.5 -67.01)" fill="#d3b738" stroke="#000" stroke-miterlimit="10"/><path d="M808.55,554.62c-.57,4.34,6.48,8.73,12.13,9.75a20.63,20.63,0,0,0,8.17-.42A32,32,0,0,0,841,559.43a30.93,30.93,0,0,0,9.36-9.54q5.24-5.29,10.49-10.58,5.58-7.53,11.17-15l2.18-7.1a15.38,15.38,0,0,1-11.58-.14,15.56,15.56,0,0,1-6.95-6.12l-6.81-.14-7.22,4.74a69.1,69.1,0,0,0-10.36,9.06,71.94,71.94,0,0,0-14.71,23.79C815.88,548.56,809.08,550.6,808.55,554.62Z" transform="translate(-499.5 -67.01)" fill="#d3b738" stroke="#000" stroke-miterlimit="10"/><path d="M777.49,538.19c.47,1.66,4,13.23,15,17.68a23.68,23.68,0,0,0,13.21,1.26c2.61-.53,5.73-1.64,16-9.94,3.94-3.17,7.1-6,13.41-11.64,8.9-8,12.83-11.83,16.48-18,.86-1.44,1.5-2.66,1.91-3.48-.14-1.16-.27-2.32-.41-3.48a10.44,10.44,0,0,1-11,.83,10.89,10.89,0,0,1-5.73-9.19q-9.52,5-19.07,10a67.17,67.17,0,0,0-12.12,4.59,69.81,69.81,0,0,0-20.85,15.87Z" transform="translate(-499.5 -67.01)" fill="#d3b738" stroke="#000" stroke-miterlimit="10"/><path d="M748.31,524.72s3.68,22,26.16,16.13a125,125,0,0,0,17.72-5.94,128.19,128.19,0,0,0,32.3-19.69l8.51-9.37a4.53,4.53,0,0,0,4.3-3.72A4.64,4.64,0,0,0,833,497l-9.33-6.87-7.52,2-25.9,12L764,515.5Z" transform="translate(-499.5 -67.01)" fill="#d3b738" stroke="#000" stroke-miterlimit="10"/><path d="M713.8,506.87a28.08,28.08,0,0,0,10.39,14.29A27.07,27.07,0,0,0,741,526.08l5.81.26,1.34-.26,2.45,1.21h5.17c7-2.18,13-4.37,17.55-6.21a174.78,174.78,0,0,0,24.52-11.54c3.53-2.06,11.41-6.85,11.41-6.85l6.34-4.17,9.64-6.9v-3.55L824,486.61l-14.1.63-3.27-4c.13-1,.27-2.09.41-3.13h-11.8Z" transform="translate(-499.5 -67.01)" fill="#d3b738" stroke="#000" stroke-miterlimit="10"/><path d="M680.25,494a32.27,32.27,0,0,0,7.8,9.14c10.73,8.58,23.53,7.14,26.77,6.68a58.38,58.38,0,0,0,12.67.77,59,59,0,0,0,16.76-3.29l8.17-1.65L778.78,495l9.2-5.22,12.67-6.47.82-2.48c-.44.08-6.36,1-10.22-3.37a11.22,11.22,0,0,1-2.66-6.68l-12.46-.21-13.49,2.93-47.82,15.45-18.39,2.86Z" transform="translate(-499.5 -67.01)" fill="#d3b738" stroke="#000" stroke-miterlimit="10"/><path d="M645.75,473.82A53.49,53.49,0,0,0,664,489c18.16,9,39.39,5.44,53.63,3l1.28-.22c15.45-2.75,36.71-8.47,65-20.88a63.6,63.6,0,0,0-18.8-13.78c-31.59-15-64.69,2.92-69.89,5.84l-24.93.84-16.35,4.59Z" transform="translate(-499.5 -67.01)" fill="#d3b738" stroke="#000" stroke-miterlimit="10"/><path d="M590.62,441.18a56.09,56.09,0,0,0,12,16.5c15.67,14.7,35.06,15.29,40.87,15.24a326.92,326.92,0,0,0,55.79-3.68c17-2.64,14.88-3.83,36-7.17,13.33-2.12,20-2.57,20.43-5.08.38-2.23-4.12-6.37-28.61-14.76L597,433.87l-5.72,1.67Q590.92,438.36,590.62,441.18Z" transform="translate(-499.5 -67.01)" fill="#d3b738" stroke="#000" stroke-miterlimit="10"/><path d="M727.48,431.55a22.21,22.21,0,0,0,1.56,9.53c4.44,10.85,18.06,17.36,34.33,17.12a79.54,79.54,0,0,0,24.93-3.76,80.8,80.8,0,0,0,22.48-11.27c-7.56,4.79-15.52,2.55-17.34-1.23-1.69-3.54,1-10.52,8-14.23Z" transform="translate(-499.5 -67.01)" fill="#d3b738" stroke="#000" stroke-miterlimit="10"/><path d="M682.53,406.34c-14,.39-28.93.31-44.78-.44-16.44-.78-31.89-2.2-46.23-4-7-1.27-14.24-2.77-21.76-4.56-9.19-2.19-17.85-4.58-26-7.08,0,0-13.08-4-14.1-.21s14.3,22.56,22.68,25.27c0,0,22.89,18.38,44.14,21.3,0,0,21.87,5.43,35.15,5.64,0,0,47.41,2.51,59.88,2.09l40.25-2.71s-5.52-9.08-2.86-10Z" transform="translate(-499.5 -67.01)" fill="#d3b738" stroke="#000" stroke-miterlimit="10"/><path d="M882.26,426.12s-25.07-20.6-57.77-20.05-139,0-139,0a22.75,22.75,0,0,0,1.87,8.63c1.7,3.87,5.54,9.45,17.2,14.21,13.16,5.38,25.08,5.14,34.88,4.84,15.39-.47,32-1.29,49.59-2.61Z" transform="translate(-499.5 -67.01)" fill="#d3b738" stroke="#000" stroke-miterlimit="10"/><path d="M774.41,455.45s-24.53,5.84,8.58,12.94c0,0,23.7-.41,24.52-6.47s3.27-6.47,3.27-6.47v-6.69s-9.81-1.67-11,0S774.41,455.45,774.41,455.45Z" transform="translate(-499.5 -67.01)" fill="#d3b738" stroke="#000" stroke-miterlimit="10"/><path d="M788.27,464s-24.24,7.81,8.48,17.3c0,0,23.43-.56,24.24-8.65s3.23-8.65,3.23-8.65V455s-9.7-2.23-10.91,0S788.27,464,788.27,464Z" transform="translate(-499.5 -67.01)" fill="#d3b738" stroke="#000" stroke-miterlimit="10"/><path d="M809.11,473.33s-23.27,12.21,10.92,19.4c0,0,23.46-3.54,23.15-13.2s2.05-10.62,2.05-10.62L844,458.35s-10-1.44-11,1.34S809.11,473.33,809.11,473.33Z" transform="translate(-499.5 -67.01)" fill="#d3b738" stroke="#000" stroke-miterlimit="10"/><path d="M829.3,490.35s-21,12,9.57,10.14l2.2-.15s22.66-7.16,21.79-13.21,1.37-7.15,1.37-7.15l-1.82-6.41s-9.88,1.19-10.6,3.14S829.3,490.35,829.3,490.35Z" transform="translate(-499.5 -67.01)" fill="#d3b738" stroke="#000" stroke-miterlimit="10"/><path d="M856.05,512s-24.34,8.09-17.18-11.52,13.91-7.76,13.91-7.76l7.36,10.51s11.48,3.07,2.45,6.27Z" transform="translate(-499.5 -67.01)" fill="#d3b738" stroke="#000" stroke-miterlimit="10"/><path d="M857.28,509.19S850,521,867,517.55c0,0,7.46-.32,8.48-3.14a12.19,12.19,0,0,0,.72-5.22L873,507.11l-2.65-1.47h-9.2s-1.43.63-1.53,1.05a6.51,6.51,0,0,1-1,1.46Z" transform="translate(-499.5 -67.01)" fill="#d3b738" stroke="#000" stroke-miterlimit="10"/><path d="M1080.59,567.84" transform="translate(-499.5 -67.01)" fill="none" stroke="#000" stroke-miterlimit="10"/><path d="M1114.47,435.23s29.45,13.21-7.46,19.61-16.26-19.61-16.26-19.61Z" transform="translate(-499.5 -67.01)" fill="#bda127" stroke="#000" stroke-miterlimit="10"/><path d="M1042.25,582.46a6.84,6.84,0,0,1-3.32,3.43c-2.7,1-5.46-.87-7.85-2.39-14.41-9.13-19.08-9.42-23.35-16.83a28.62,28.62,0,0,1-1.31-2.59,55,55,0,0,1-3.95-14.75,55.88,55.88,0,0,1-.41-8.2l2.71-7,9-.43,8.18,8.5C1025.3,546.79,1045.88,575.08,1042.25,582.46Z" transform="translate(-499.5 -67.01)" fill="#d3b738" stroke="#000" stroke-miterlimit="10"/><path d="M1076.44,605.43" transform="translate(-499.5 -67.01)" fill="none" stroke="#000" stroke-miterlimit="10"/><path d="M1077,566.67s-.75,11.68-8.64,15.87c-2.56,1.36-7,.91-11.25.81-.69,0-2.36-.07-4.5-.33a26.82,26.82,0,0,1-6.13-1.25,20.92,20.92,0,0,1-4.22-2.09,29.89,29.89,0,0,1-5.32-3.48,29.19,29.19,0,0,1-4.35-4.45q-2.52-4.05-5-8.08c-1.58-2.88-3.15-6-4.63-9.33-.48-1.08-.93-2.15-1.36-3.2-.9-2.06-1.8-4.13-2.69-6.19l-4.53-7.73-3.27-3.62,6.68-3.35,11.58-3.75,4.9-3,5.39.25a50.65,50.65,0,0,0,10.69,11c4.69,3.52,8.36,4.91,13.48,9.78a49.54,49.54,0,0,1,5.45,6.13l4.5,8.91,1.63,3.2Z" transform="translate(-499.5 -67.01)" fill="#d3b738" stroke="#000" stroke-miterlimit="10"/><path d="M1101.65,562.14c.57,4.34-6.48,8.72-12.13,9.74a20.63,20.63,0,0,1-8.17-.42,32,32,0,0,1-12.17-4.51,30.83,30.83,0,0,1-9.36-9.55l-10.49-10.58-11.17-15c-.73-2.37-1.45-4.74-2.18-7.1a15,15,0,0,0,18.53-6.27l6.81-.14,7.22,4.74a69.67,69.67,0,0,1,10.36,9.06,72,72,0,0,1,14.71,23.79C1094.32,556.07,1101.12,558.11,1101.65,562.14Z" transform="translate(-499.5 -67.01)" fill="#d3b738" stroke="#000" stroke-miterlimit="10"/><path d="M1132.71,545.71c-.47,1.66-4,13.23-15,17.68a23.62,23.62,0,0,1-13.21,1.25c-2.61-.52-5.73-1.64-16-9.93-3.94-3.18-7.1-6-13.41-11.65-8.9-8-12.83-11.83-16.48-18-.86-1.43-1.5-2.66-1.91-3.48.14-1.16.27-2.32.41-3.48a10.44,10.44,0,0,0,11,.84,10.91,10.91,0,0,0,5.73-9.19l19.07,10a67.27,67.27,0,0,1,12.12,4.6,69.65,69.65,0,0,1,20.85,15.87Z" transform="translate(-499.5 -67.01)" fill="#d3b738" stroke="#000" stroke-miterlimit="10"/><path d="M1161.89,532.23s-3.68,22-26.16,16.14a126.23,126.23,0,0,1-17.72-5.94,128.48,128.48,0,0,1-32.3-19.69l-8.51-9.37a4.54,4.54,0,0,1-4.3-3.72,4.63,4.63,0,0,1,4.3-5.1l9.33-6.87,7.52,2,25.9,12L1146.2,523Z" transform="translate(-499.5 -67.01)" fill="#d3b738" stroke="#000" stroke-miterlimit="10"/><path d="M1196.4,514.38A28,28,0,0,1,1186,528.67a27,27,0,0,1-16.79,4.93l-5.81.25-1.34-.25-2.45,1.21h-5.17c-7-2.18-13-4.38-17.55-6.22a173.64,173.64,0,0,1-24.52-11.54c-3.53-2-11.41-6.84-11.41-6.84l-6.34-4.18-9.64-6.89v-3.55l1.26-1.46,14.1.62,3.27-4c-.13-1.05-.27-2.09-.41-3.14H1115Z" transform="translate(-499.5 -67.01)" fill="#d3b738" stroke="#000" stroke-miterlimit="10"/><path d="M1230,501.49a32.38,32.38,0,0,1-7.8,9.13c-10.73,8.58-23.53,7.15-26.77,6.69a58.65,58.65,0,0,1-29.43-2.52l-8.17-1.66-26.36-10.65-9.2-5.22-12.67-6.47-.82-2.49c.44.08,6.36,1,10.22-3.36a11.18,11.18,0,0,0,2.66-6.68l12.46-.21,13.49,2.92,47.82,15.45,18.39,2.86Z" transform="translate(-499.5 -67.01)" fill="#d3b738" stroke="#000" stroke-miterlimit="10"/><path d="M1264.45,481.33a53.66,53.66,0,0,1-18.25,15.17c-18.16,9-39.39,5.43-53.63,3l-1.28-.23c-15.45-2.74-36.71-8.47-65-20.88a63.77,63.77,0,0,1,18.8-13.78c31.59-15,64.69,2.92,69.89,5.85l24.93.83,16.35,4.6Z" transform="translate(-499.5 -67.01)" fill="#d3b738" stroke="#000" stroke-miterlimit="10"/><path d="M1319.58,448.7a55.93,55.93,0,0,1-12,16.49c-15.67,14.7-35.06,15.3-40.87,15.25a326.74,326.74,0,0,1-55.79-3.69c-17-2.64-14.88-3.83-36-7.17-13.33-2.11-20-2.56-20.43-5.08-.38-2.22,4.12-6.36,28.61-14.76l130.17-8.35,5.72,1.67Q1319.29,445.88,1319.58,448.7Z" transform="translate(-499.5 -67.01)" fill="#d3b738" stroke="#000" stroke-miterlimit="10"/><path d="M1182.72,439.07a22.16,22.16,0,0,1-1.56,9.52c-4.44,10.86-18.06,17.36-34.33,17.13a80.18,80.18,0,0,1-47.41-15c7.56,4.79,15.52,2.56,17.34-1.23,1.69-3.54-1-10.52-8-14.22Z" transform="translate(-499.5 -67.01)" fill="#d3b738" stroke="#000" stroke-miterlimit="10"/><path d="M1227.67,413.86c14,.38,28.93.31,44.78-.45,16.44-.78,31.89-2.19,46.23-4,7-1.27,14.24-2.77,21.76-4.56,9.19-2.18,17.85-4.57,26-7.07,0,0,13.08-4,14.1-.21s-14.3,22.55-22.68,25.27c0,0-22.89,18.37-44.14,21.3,0,0-21.87,5.43-35.15,5.64,0,0-47.41,2.5-59.88,2.08l-40.25-2.71s5.52-9.07,2.86-10Z" transform="translate(-499.5 -67.01)" fill="#d3b738" stroke="#000" stroke-miterlimit="10"/><path d="M1027.94,433.64S1053,413,1085.71,413.59s139,0,139,0a22.71,22.71,0,0,1-1.87,8.62c-1.7,3.87-5.54,9.45-17.2,14.22-13.16,5.37-25.08,5.14-34.88,4.84-15.39-.47-32-1.29-49.59-2.61Z" transform="translate(-499.5 -67.01)" fill="#d3b738" stroke="#000" stroke-miterlimit="10"/><path d="M1135.79,463s24.53,5.85-8.58,13c0,0-23.7-.42-24.52-6.48s-3.27-6.47-3.27-6.47v-6.68s9.81-1.67,11,0S1135.79,463,1135.79,463Z" transform="translate(-499.5 -67.01)" fill="#d3b738" stroke="#000" stroke-miterlimit="10"/><path d="M1117.84,471.49s35.72,7.81-12.5,17.29c0,0-34.53-.55-35.72-8.65s-4.76-8.64-4.76-8.64v-8.93s14.29-2.23,16.07,0S1117.84,471.49,1117.84,471.49Z" transform="translate(-499.5 -67.01)" fill="#d3b738" stroke="#000" stroke-miterlimit="10"/><path d="M1100.2,488.43s23.67,8.79-10,11.81c0,0-23.49-3.29-23.59-9.4s-2.5-6.83-2.5-6.83l.78-6.63s9.94-.47,11,1.34S1100.2,488.43,1100.2,488.43Z" transform="translate(-499.5 -67.01)" fill="#d3b738" stroke="#000" stroke-miterlimit="10"/><path d="M1080.9,497.86s21,12-9.57,10.14l-2.2-.15s-22.66-7.15-21.79-13.2-1.37-7.15-1.37-7.15l1.82-6.42s9.88,1.19,10.6,3.14S1080.9,497.86,1080.9,497.86Z" transform="translate(-499.5 -67.01)" fill="#d3b738" stroke="#000" stroke-miterlimit="10"/><path d="M1038.84,518.92s44.48,11.07,31.4-15.79-25.42-10.63-25.42-10.63l-13.45,14.4s-21,4.21-4.48,8.58Z" transform="translate(-499.5 -67.01)" fill="#d3b738" stroke="#000" stroke-miterlimit="10"/><path d="M1052.92,516.71s7.26,11.8-9.7,8.35c0,0-7.46-.31-8.48-3.13a12.2,12.2,0,0,1-.72-5.22l3.17-2.09,2.65-1.46h9.2s1.43.62,1.53,1a6.51,6.51,0,0,0,1,1.46Z" transform="translate(-499.5 -67.01)" fill="#d3b738" stroke="#000" stroke-miterlimit="10"/><path d="M933.43,487.74a77.31,77.31,0,0,1-12.79-7.4A83,83,0,0,1,902.13,462a132.73,132.73,0,0,1-8.39-12.59,138.47,138.47,0,0,1-8.86-18,24.75,24.75,0,0,0-7.83-12.05c-4-3.18-8.18-3.81-16.33-5a103,103,0,0,0-16.77-.95,77.81,77.81,0,0,1-21.79-3.87A82.66,82.66,0,0,1,792.37,392l32.22,67.55,29.17,22.68,15.67,17.95,17.41,12.28,20,13.23,12.19,2.36,2.61-6.61.87-5.2a28.41,28.41,0,0,1,1.09-16.06A25.63,25.63,0,0,1,933.43,487.74Z" transform="translate(-499.5 -67.01)" fill="#414262"/><path d="M980.59,487.57a77.11,77.11,0,0,0,12.87-7.25,82.92,82.92,0,0,0,18.69-18.07,133.31,133.31,0,0,0,8.52-12.49,136.76,136.76,0,0,0,9-17.89,24.71,24.71,0,0,1,8-11.95c4.06-3.13,8.22-3.72,16.38-4.76a101.92,101.92,0,0,1,16.78-.76,77.4,77.4,0,0,0,21.83-3.6,82.69,82.69,0,0,0,30-17.25l-32.91,67.15L1060.31,483l-15.85,17.76-17.54,12.07-20.16,13-12.21,2.21L992,521.41l-.81-5.21a28.48,28.48,0,0,0-.93-16.07A25.64,25.64,0,0,0,980.59,487.57Z" transform="translate(-499.5 -67.01)" fill="#414262" stroke="#000" stroke-miterlimit="10"/><path d="M949.5,491.81c-3.56-.32-5.94-5.11-7.23-7.72a24.71,24.71,0,0,1-2.46-11c.23-2.84.47-5.67.71-8.51a14.7,14.7,0,0,1,2.75-6.32,12.9,12.9,0,0,1,6.24-4.48,45.66,45.66,0,0,1,12.72-1.22l6.17,1.64,5.34,4.34a33.11,33.11,0,0,1,2.35,7.46,35.13,35.13,0,0,1,.58,6l-.73,6.93a26.2,26.2,0,0,1-3.05,8.5c-1.25,2.18-2.37,4.07-4.49,4.72a5.79,5.79,0,0,1-3.63-.15c-1.51-1.69-4-3.9-7-3.78C954,488.34,952.77,492.09,949.5,491.81Z" transform="translate(-499.5 -67.01)" fill="#fff" stroke="#000" stroke-miterlimit="10" stroke-width="0.5"/><path d="M901.75,588" transform="translate(-499.5 -67.01)" fill="none" stroke="#000" stroke-miterlimit="10"/><path d="M884.55,563.49" transform="translate(-499.5 -67.01)" fill="none" stroke="#000" stroke-miterlimit="10"/><path d="M895.83,554.12" transform="translate(-499.5 -67.01)" fill="none" stroke="#000" stroke-miterlimit="10"/><path d="M939.06,536.3a35.22,35.22,0,0,0-6.1-9c-.25-.26-.5-.54-.62-.63-12.53-9.66-69.62,67.65-69.49,67.8s1.39-1.59,7.56-9l87.68,38c6.34,6.13,9.06,7.5,9.94,6.63,1.6-1.6-3.45-10.42-1.3-12.75,1.15-1.24,3.71.07,4.91.63,9.61,4.48,20.57,1.77,27.72,0,1.62-.4,6.19-1.66,18.12-10.32a211.42,211.42,0,0,0,29.7-26.27l-61.66-49.58a7.73,7.73,0,0,0-2.34.67c-2.11,1-3.86,2.92-8.14,11.18-1.65,3.18-1.41,3-1.78,3.52-5.45,8.59-24.66,8.86-30.35-.57C941.29,543.87,942.05,542.5,939.06,536.3Z" transform="translate(-499.5 -67.01)" fill="#40415c" stroke="#000" stroke-miterlimit="10"/><path d="M907.92,559.8l1.08-.73L923.79,549l9-2.27c9-2.28,5.15,9.86,5.15,9.86,8.57-2.3,13.47,5,13.47,5s2.81,4.5.88,14.84S956.4,588,956.4,588l1.47-15.66H959V588h1.5c5.57-.58,2.88-17.39,2.88-17.39.95-17.22,14.9-14,14.9-14s-.85-11.43,4.85-9.68,21.73,13.37,21.73,13.37,23.78,20.82-4.61,8.09c0,0,16.61,27.46-5.89,9.49,0,0,9.26,29.7-11.23,5.12,0,0,11.08,31-6.85,6.94,0,0,5.22,33-10.85,6.11,0,0-7.5,33.31-15,3.2,0,0-12,19.49-11.79-6.31,0,0-14.93,17.89-8.54-6.57,0,0-15.7,18.22-9.9-6,0,0-20,14-6.64-9.74,0,0-20.44,12-6.46-10.34Z" transform="translate(-499.5 -67.01)" fill="#fff" stroke="#000" stroke-miterlimit="10"/><path d="M1018.4,563.08c7.79,2.69,2.18-5.52,2.18-5.52L993,537.47a6.2,6.2,0,0,0-5.82,2.61,8.51,8.51,0,0,0-.44,8.48l5,2.94,6.81,4.45,9.63,7.54,5.36,4.15c2.13.41,2.64-.84,3.1-1.58.16-.24.31-.43.51-.48a1.4,1.4,0,0,0,1.68-1.11A1.65,1.65,0,0,0,1018.4,563.08Z" transform="translate(-499.5 -67.01)" fill="#fff" stroke="#000" stroke-miterlimit="10"/><path d="M902.61,548.91s-16.93,24.22,6.43,10.24l11.13-7.63,8.44-5.85s6.57-11.73-5.64-8.24-7.48,2.43-7.48,2.43Z" transform="translate(-499.5 -67.01)" fill="#fff" stroke="#000" stroke-miterlimit="10"/><path d="M912.86,654.58" transform="translate(-499.5 -67.01)" fill="#fff" stroke="#000" stroke-miterlimit="10"/><path d="M986.22,614.47s-2.36-18.11,7.5-4.14.86-10.49.86-10.49-.63-3.33,3.75-.67c0,0,8.39,12.48,6.25,5.82,0,0-12-20.3,4.14-11.15s1.57-3.16,1.57-3.16-5.2-4.49,3.54-3.66-4.25-5.66-4.25-5.66-2.16-7,7.28-4l9.43,3s-10.29-12.49-9-10.16.71-.29.71-.29l-1.61-2.69,1.7-.77,1.46-1.8h1.87l.79-2.27a22.34,22.34,0,0,1,5.51,2.27c2.14,1.39,27.86,19.7,26.57,21.7,0,0,12.86,19.47-15.43,6.49,0,0,23.38,32.44-7.43,16,0,0,18.43,29.08-6.28,12.63,0,0,8.91,32.18-13.15,8.34s27,32-12.85,11S986.22,614.47,986.22,614.47Z" transform="translate(-499.5 -67.01)" fill="#fff" stroke="#000" stroke-miterlimit="10"/><path d="M974.72,616.64s2.78,30.62,11,32.45,13.54,6.66,13.4-8.48l-13.62-28.77-2.24-3.35-2.57-.83h-1.86l-1.29,1.5-2.85.83-1.43-.83v6.32l1.32,4.07.15.73Z" transform="translate(-499.5 -67.01)" fill="#fff" stroke="#000" stroke-miterlimit="10"/><path d="M883.29,567.72s28.56-7.7,5.26,13l-.55.48s12.43-8.82,14.86-4.33c0,0,5.28-1.83,2.43,3.66,0,0-.29,4.83-4.86,6.33,0,0,9.43-3.67,3.86,6a17,17,0,0,1-2.43,4.49c-1.43,1.66,21.57-20.64,10.29,5,0,0,13.57-12.15,7.28,4.66s-1.14,5.54-1.14,5.54l.28-.69s14-15.5,9.86,3c0,0,6.14-13,9.14-5s2.86,0,2.86,0,2.14-3.12,2,2a18.6,18.6,0,0,1-2,8.3s-5.14,23.29-7.43,23.46-3.43,8.49-9.14,7.49c0,0-8.57,5.82-7.43-11.82-.57.47-10.85,8.75-13.56,5.86-2-2.2.51-10.48,6.42-20.33-2.59,8-8.16,13-13.87,12.9-.61,0-5.94-.11-7.42-3.75-2.88-7.11,11-22.46,11.43-22.11s-5,9.66-11.29,12.29c-.77.33-7.7,3.24-10.09-.18-1.49-2.12-.51-5.66,0-7.31,2.24-8.06,9.2-12,11.86-13.31-5,3.67-17.18,12.07-20.32,8.35-2.06-2.44.18-9.58,2.46-13.84,3.48-6.5,9-10,9.14-9.82s-3.83,5.3-9.57,8c-4.9,2.29-12.6,3.72-14.11.59s3.7-9.39,6.54-13.07A54.45,54.45,0,0,1,883.29,567.72Z" transform="translate(-499.5 -67.01)" fill="#fff" stroke="#000" stroke-miterlimit="10"/><path d="M951.33,635.45" transform="translate(-499.5 -67.01)" fill="#fff" stroke="#000" stroke-miterlimit="10"/><path d="M951.33,629.37c-4.05,10.29-4.15,20.45.15,25.69.69.84,3.24,3.94,7,4,3.89,0,6.55-3.33,7.08-4a12.59,12.59,0,0,0,2.29-5c1.31-5.54.16-13.13-3.31-20.69" transform="translate(-499.5 -67.01)" fill="#fff" stroke="#000" stroke-miterlimit="10"/><path d="M948.27,645.61c0-.11-12.3,24.91-15.27-2-.49-4.43,9.22-29.3,9.22-29.3s7-3.26,13,0,5.25,10.37,5.25,10.37,3.43,9.71,2.89-10.37c0,0,1.5-4.25,4.07,0s2.47-.86,2.47-.86,1.39-7,2.67.86c0,0,.54,6.13,2,5.25,0,0,5.67,27.92,9.32,26.63,0,0-.27,1-.76,2.31-2,5.55-7.85,17.76-14.84-2.31" transform="translate(-499.5 -67.01)" fill="#fff" stroke="#000" stroke-miterlimit="10"/><path d="M948.27,646.18c-13.29,24-15.55-2-15.55-2" transform="translate(-499.5 -67.01)" fill="#fff" stroke="#000" stroke-miterlimit="10"/><path d="M943.77,548" transform="translate(-499.5 -67.01)" fill="#40415c" stroke="#000" stroke-miterlimit="10"/><path d="M964.11,554.53" transform="translate(-499.5 -67.01)" fill="#40415c" stroke="#000" stroke-miterlimit="10"/><path d="M937.86,479.24a36.32,36.32,0,0,0-7.81,7.5,39.42,39.42,0,0,0-6.88,14.19,54.91,54.91,0,0,0-.5,11.5c.24,4,.58,9.64,3.43,15.68.8,1.69.85,1.41,6.89,10,5.84,8.34,6,8.86,7.37,9.78,4,2.64,7.41,1.32,15,1.19A71.82,71.82,0,0,1,972.9,551a128.31,128.31,0,0,0,7.57-10.87,126.21,126.21,0,0,0,7.06-13c1-1.72,9.08-16.31,3.11-31.47-4-10.15-12-14.7-15.08-16.44C958.72,469.67,940.78,477.85,937.86,479.24Z" transform="translate(-499.5 -67.01)" fill="#40415c" stroke="#000" stroke-miterlimit="10"/><path d="M959.19,504.49c-3.47-10.74-12.42-16.3-19.28-14.3-5.77,1.68-9.11,8.44-10.2,13.33a22.76,22.76,0,0,0,1.18,13.24,44.19,44.19,0,0,0,7.48,15.38,29,29,0,0,1,5.31,9,26.15,26.15,0,0,1,1.33,6.3l.67,4.61,30.82,1a46.21,46.21,0,0,0,.66-5.82c.15-2.89-.1-3.33.1-4.87.35-2.79,1.52-4.16,3.77-7.95,1.08-1.81,2.55-4.43,4.16-7.79q1.89-4.37,3.79-8.72a22.18,22.18,0,0,0,3.09-11.41c-.08-6.51-3.16-13.77-8.25-16.44C976.61,486.22,964.67,491.26,959.19,504.49Z" transform="translate(-499.5 -67.01)" fill="#fff" stroke="#000" stroke-miterlimit="10"/><path d="M947,550.53s.91-3.25,3-1.38c0,0,3.75-3.4,3.7.79,0,0,2.93-3.4,3.22-.27s-.09,1.52-.09,1.52,2.17,4.41-.23,7.72c0,0-1.74,4.45-2.35-.16,0,0-2,5.07-2.23.32,0,0-2.41,4.57-3.16-.06A11.14,11.14,0,0,1,947,550.53Z" transform="translate(-499.5 -67.01)" fill="#fff" stroke="#000" stroke-miterlimit="10"/><path d="M959.74,550.47s.72-3.3,2.9-1.57c0,0,3.55-3.65,3.73.54,0,0,2.73-3.59,3.2-.49s0,1.52,0,1.52,2.42,4.26.21,7.72c0,0-1.48,4.57-2.35,0,0,0-1.65,5.2-2.21.47,0,0-2.15,4.73-3.16.16A11,11,0,0,1,959.74,550.47Z" transform="translate(-499.5 -67.01)" fill="#fff" stroke="#000" stroke-miterlimit="10"/><path d="M934.15,507.24s15.31-4.88,17.85-6.93,12.91-3,12.91-3l-2.25,1.42,5.17.7L962,501.18s-24.89,5-23.65,8.18l-3,.87s-1.88-1.34-1.23-2.52" transform="translate(-499.5 -67.01)"/><ellipse cx="461.01" cy="405.32" rx="21.41" ry="23.41" fill="#ededed" stroke="#1d1d1b" stroke-linecap="round" stroke-miterlimit="10"/><path d="M966.79,486.41a7.4,7.4,0,0,1,.34-5.76,6,6,0,0,1,2.61-2.49,7.19,7.19,0,0,1,2.63-.54,17.22,17.22,0,0,1,3.24,0c-.31,1.52-.61,3-.92,4.55a6.79,6.79,0,0,1-1.6,2.64A6.9,6.9,0,0,1,966.79,486.41Z" transform="translate(-499.5 -67.01)"/><path d="M943.07,477.61a4.82,4.82,0,0,1,5.06-.52,6.86,6.86,0,0,1,2.66,2.8,11.48,11.48,0,0,1,1,3.11,29,29,0,0,1,.62,4l-4.12-.38a5.86,5.86,0,0,1-2.6-1.53C943.05,482.46,943.06,478.14,943.07,477.61Z" transform="translate(-499.5 -67.01)"/><ellipse cx="973.19" cy="480.11" rx="2.18" ry="1.73" transform="translate(-558.96 746.6) rotate(-44.16)" fill="#ededed"/><ellipse cx="469.6" cy="418.21" rx="1.27" ry="1.38" fill="#ededed"/><ellipse cx="945.1" cy="479.44" rx="1.75" ry="2.16" transform="translate(-493.91 902.73) rotate(-54.46)" fill="#ededed"/><ellipse cx="450.83" cy="418.03" rx="1.27" ry="1.38" fill="#ededed"/><path d="M951.77,491.78a7.17,7.17,0,0,1,6.93-4.44A7.38,7.38,0,0,1,964,491l1.26,1.93a9.5,9.5,0,0,1-1.92,2.35,9.05,9.05,0,0,1-1,.73l-1.63.56-.3,7.52-4.83.08q.06-3.72.1-7.44l-2.56-1.24L951,493Z" transform="translate(-499.5 -67.01)" fill="#fff" stroke="#1d1d1b" stroke-linecap="round" stroke-miterlimit="10"/><path d="M962.66,498.74l17.93-8.47,26.44-1.06-13.49,8.38Z" transform="translate(-499.5 -67.01)" fill="#62722c" stroke="#000" stroke-miterlimit="10"/><path d="M839.45,430a50,50,0,0,0,13.71,1.75c1.77,0,3.45-.15,5-.33" transform="translate(-499.5 -67.01)" fill="none" stroke="#000" stroke-miterlimit="10"/><path d="M899.79,525.07s-11.95,14.17,4.71,6.9c0,0-6.53,9.63,7.26,2.49,0,0-3.63,8.48,4.93,2.63,0,0,2.84,9.33,7.08,2.06,0,0,1.48,9.73,4,1.07l1.45-.47,1.89-1-2.18-3.56-2.9-4.41-2.21-5.71-5.3,1.14s-1.85,4-2,.21-4.68-2.1-4.68-2.1L910,522.79l-5.33,1.29Z" transform="translate(-499.5 -67.01)" fill="#fff" stroke="#000" stroke-miterlimit="10"/><path d="M869.06,420.52s-50.5-9.45-40,0L839.45,430a4.36,4.36,0,0,0-.94,3c.75,6.06,19.62,8,19.55,8.43s-17.29-3.18-17.88-1.17c-.37,1.26,5.85,4.91,21.91,12.07,0,0-40.05-3.55.58,7.47,0,0-31.63.79,3.05,8.35,0,0-24.24,1.1,3.34,8.5,0,0-21,2.89,7.69,8.85-4.09,1.27-6.11,2.45-6.06,3.52q.1,2.76,18.62,4.62-9.43,1.47-9.46,3.13,0,1.88,11.84,4s-10.86,8.37,12,4.73c0,0-17.27,9.13,7.84,5.35,0,0-16.84,12.75,6.67,4.41,0,0-16.83,8.82-.72,8,0,0-1.6,5.51,3.19,3.31s3.41-2.27,3.41-2.27l.19-13.15-3-2.22s4.58-8.34-9-3c0,0,18-7.87-.14-3.15,0,0,19.44-9.76-5.81-2,0,0,33.23-19.52-7.83-4.09,0,0,30.47-14.18,4.06-5.91,0,0,20.46-13.31-9.29-2.28,0,0,16.4-10.17-1-4.93,0,0,22.92-8.3-10.89-5,0,0,37.15-5.51-5.44-4.09,0,0,40.41-3,3.7-5.2,0,0,27.73-3.68-3.7-3.78h-1.23s37.58-5.19-1-4.88c0,0,28.59-5.25-1.89-4.67,0,0,31.93-5.25-3.19-7.45q15.81-.18,15.89-1.44.06-1.08-11.33-2.94,11.16-1.26,11.16-2.52,0-1.51-15.86-3s37.15-3.94-6.53-5.2c0,0,37.83-.61,3.91-5.35C865.86,427.92,895.32,427.29,869.06,420.52Z" transform="translate(-499.5 -67.01)" fill="#fff" stroke="#000" stroke-miterlimit="10"/><path d="M804.63,406.4s-18.29-12.76-21.34-9,6.1,13.7,6.1,13.7-25.69,7.09,40.05,26c0,0-77.06-26-20,4.25,0,0-24.81-1.42,8.71,12.28,0,0-43.1-13.22,11.32,11.34,0,0-39.62-2.53,6.53,9.36,0,0-3.46,1.6-3.41,3.89.1,5.13,18,8.48,20.39,8.48h2.18s-40.06-2.83,5.66,9c0,0-23.51-.95,8.7,8,0,0-17,4,2.61,2.83,0,0-10.34,9.11,13.06,7.09,0,0-21.3,4.52,3.92,6.61,0,0-9.28,9.7,9.15,5.87s9.14-4.93,9.14-4.93L903,519.77s3.92-4.26-6.53-3.31c0,0,5.66-5.2-6.53-5.67,0,0,11-4.57-5.66-2.68,0,0,11.18-6.92-8.41-4.56,0,0,12.48-6.3-3.49-5.83,0,0,9.09-3.5-6.09-4.09,0,0,13.21-3.15-7.69-3.47,0,0,13.64-9.92-6.24-9.6,0,0,7.18-4.69-6.18-3,0,0,17.93-4.57-3.25-9.29,0,0,18.14-6.14-6-5.2,0,0,18.72-1.89-2.76-4.72,0,0,20.75-2.68-6.82-9,0,0,28.88,1.42-1.74-6,0,0,30.76,9.29,4.93-4.88,0,0,15.24,1.26.44-5.36,0,0,12.1-1.41-4.33-6.61l-18-6.61S850.77,432.69,804.63,406.4Z" transform="translate(-499.5 -67.01)" fill="#fff" stroke="#000" stroke-miterlimit="10"/><path d="M1008.15,532.56s11.86,5.11-1,5c0,0-.87,5.9-8.27.71,0,0-1.85,4.39-6.1,2.14,0,0-4.46,8.3-4.89-1,0,0-5.45,3.87-3.16-1.68s4.33-6.38,4.33-6.38l-.3-2.48a7.39,7.39,0,0,1,.43-2.36,7.18,7.18,0,0,1,.83-1.61l4.71-1.44c1.09,1.17,2.19,2.34,3.28,3.52Z" transform="translate(-499.5 -67.01)" fill="#fff" stroke="#000" stroke-miterlimit="10"/><path d="M1038,423.94c13.91-.06,25-.28,32.65-.47,0,0,12.85-.33,13.06,1.65.14,1.27-5.63,1.89-8.27,7.09-1,1.89-.63,2.66-1.52,4.48-1.8,3.66-5.46,5.32-8.27,6.14,2.72-.71,4.91-.49,5.37.56.55,1.24-1.38,3.47-2.76,4.64-5.62,4.73-14.1,1.78-14.28,2.69-.21,1.1,12.63,3.92,12.54,6.29-.06,1.39-4.59,2.75-17.27,3.9,0,0,33,1.72-1.47,7.26,0,0,25.56,4.9-3.59,7.81,0,0,19.51,4.24-3.85,7.92,0,0,16.69,5.58-7.43,7.69q4.72,2.69,4.45,4.25-.46,2.71-15.73,2.12c5,1.78,7.38,3.22,7.25,4.31s-3.53,2-10.14,2.36c0,0,7.7,9.64-10.41,3.07,0,0,12.79,11.23-7.07,4.24,0,0,12,14.73-6,3.47,0,0,12.48,10.86-.49,8,0,0,.56,5.62-3,2.83s-2.47-2.67-2.47-2.67l1.62-12.95,2.74-1.79s-2.6-8.8,7.7-1.77c0,0-13.54-10.08.54-3.07,0,0-14.47-12.13,5-1.26,0,0-24.35-23.52,6.9-3,0,0-22.82-17.91-2.5-6.34,0,0-14.82-15.75,7.84-1,0,0-11.94-12.13,1.49-4.71,0,0-17.5-11.15,9.5-3.49,0,0-29.41-10.26,5-3.31-12.68-3.86-16.28-5.28-16.19-5.65s3.69.53,9.36-.26c.88-.12,1.63-.25,2.22-.37-6.87-2.08-8.61-3-8.54-3.38.16-.86,8.67,0,14.35.84l1,.15s-29.8-10,1.48-4.66c0,0-22.49-8.89,2.16-4.35-7.85-1.91-13-3.6-12.89-4.74.21-2,16.48-1.54,16.48-2.17s-16.42-.76-16.48-2.08c0-.74,5.09-1.71,13.37-2.81q-14.85-.36-14.89-1.44t19.45-3.4c-9.36-1-15.13-1.91-15.1-2.51,0-1.13,21.07-.8,21.09-1.74s-20.32-1.49-20.44-3.92,20-5.58,19.81-6.62-16,2.26-17.2-1.65C1033.64,428.67,1034.94,426.63,1038,423.94Z" transform="translate(-499.5 -67.01)" fill="#fff" stroke="#000" stroke-miterlimit="10"/><path d="M1108.18,410.49s19.91-13.87,23.66-10.67-5.93,13.45-5.93,13.45,29.83,3.88-43.76,28.56c0,0,86-32.51,23.16,1.83,0,0,28.21-4-9,12.4,0,0,48.19-17-12.06,11.81,0,0,45-6.61-6.76,9.44,0,0,4.06,1.13,4.18,3.26.27,4.81-20,9.86-22.63,10.11l-2.48.23h0s45.48-6.93-5.79,9c0,0,26.75-3.39-9.33,8.44,0,0,19.69,2-2.77,2.92,0,0,12.48,7.41-14.37,8,0,0,24.64,2-4,6.6,0,0,11.31,8.07-10,6.46s-10.8-3.62-10.8-3.62l4.86-1.79s-4.78-3.56,7.21-3.79c0,0-6.85-4.25,7-6,0,0-12.92-3.09,6.26-3.11,0,0-13.26-5.28,9.26-5.17,0,0-14.7-4.55,3.54-5.81,0,0-10.62-2.3,6.65-4.48,0,0-15.3-1.53,8.52-4.06,0,0-16.3-7.81,6.4-9.64,0,0-8.54-3.61,6.83-3.45,0,0-20.8-2.35,3-9,0,0-21.15-3.8,6.4-5.49,0,0-21.5.23,2.79-4.71,0,0-23.87-.28,7.11-9.11,0,0-32.83,4.41,1.55-5.78,0,0-34.41,12-6-4,0,0-17.28,2.8-.89-5,0,0-13.91,0,4.44-6.64l20.07-8.11S1057.49,440,1108.18,410.49Z" transform="translate(-499.5 -67.01)" fill="#fff" stroke="#000" stroke-miterlimit="10"/><path d="M991,498.74c8.25,8.73,11.73,13.31,13.35,15.9.25.4,5.66,6.14,5.66,6.14h-1.88a20.31,20.31,0,0,0-6.24,0l-1.89-4.57-11.46-17.47Z" transform="translate(-499.5 -67.01)" fill="#95b867" stroke="#000" stroke-miterlimit="10"/><path d="M995.28,497.18a23.43,23.43,0,0,1,15.4,1.54,23,23,0,0,1,5.14,3.39l1.33,1.57-10.79-1.32-5.59-1.88-4.49-2.37Z" transform="translate(-499.5 -67.01)" fill="#4e5b33" stroke="#000" stroke-miterlimit="10"/><path d="M1017.54,496.59" transform="translate(-499.5 -67.01)" fill="#4e5b33" stroke="#000" stroke-miterlimit="10"/><path d="M1015.1,500.58s7.29,3.86,9.58,7.29c1.78,3.53,3.25,6.36,4.27,8.29,1.48,2.82,2.8,5.74,4.33,8.54,1,1.86,1.89,3.36,1.63,3.6s-1.59-.94-2.72-2l-3-2.92q-3.11-4.14-6.2-8.27-1.8-2.33-3.58-4.67l-2.14-4.54Z" transform="translate(-499.5 -67.01)" fill="#95b867" stroke="#000" stroke-miterlimit="10"/><path d="M1040,511.18" transform="translate(-499.5 -67.01)" fill="#4e5b33" stroke="#000" stroke-miterlimit="10"/><polygon points="521.58 445.82 521.58 457.16 526.47 468.02 527.72 453.77 521.58 445.82" fill="#4e5b33" stroke="#000" stroke-miterlimit="10"/><path d="M1018.86,502.67h12.95c.1,1.16.19,2.31.29,3.47h-7.6Z" transform="translate(-499.5 -67.01)" fill="#4e5b33" stroke="#000" stroke-miterlimit="10"/><path d="M1032.1,505.85s2.42,12.59,4.89,14.64,9.14,12.28,9.14,12.28l1.59,2.94,1.46-3.88-.73-6.34S1036.65,508.21,1032.1,505.85Z" transform="translate(-499.5 -67.01)" fill="#95b867" stroke="#000" stroke-miterlimit="10"/><path d="M1030.26,503a42.47,42.47,0,0,1,6.46-2.21,41.76,41.76,0,0,1,6.22-1.06,21.64,21.64,0,0,1,7.09-1,25.14,25.14,0,0,1,5.72.88,45.31,45.31,0,0,1,8.82,3.15l1.58.66-14.1,1-7.94.92-5.39.06-5.62-1.26Z" transform="translate(-499.5 -67.01)" fill="#58642c" stroke="#000" stroke-miterlimit="10"/><path d="M1032.1,504.4l15.08,6.78Z" transform="translate(-499.5 -67.01)" fill="#58642c" stroke="#000" stroke-miterlimit="10"/><path d="M1048.21,511.17a25.37,25.37,0,0,1,5.92.58,56.66,56.66,0,0,0,6.27,1.31c.55.08,1,.13,1.3.16l4.94.32,4.21,2.2,5.66,2.68,2.45,2.07,3.93,3.12-4.21,1.73-7.48-1c-1.4-.57-2.82-1.16-4.27-1.8s-3-1.34-4.44-2l-4.76-2.23-4.49-2-2.85-2.59Z" transform="translate(-499.5 -67.01)" fill="#58642c" stroke="#000" stroke-miterlimit="10"/><path d="M1047.18,511.88s0,5,3,7.47a10.92,10.92,0,0,0,1.62,1.69c1.24,1.06,2.11,1.26,4.49,2.31,3.38,1.49,3.09,1.71,4.28,1.91a34.73,34.73,0,0,0,4.1.08h7.5Z" transform="translate(-499.5 -67.01)" fill="#93a477" stroke="#000" stroke-miterlimit="10"/><path d="M1004.92,496.43h25.54s10.3-3,11.61-6.52l1.3-3.54a56.81,56.81,0,0,1-7.67,3,55.59,55.59,0,0,1-6.88,1.63c-6.51-1.78-10.36-.74-12.7.62a44.81,44.81,0,0,1-3.93,2.32A29.45,29.45,0,0,1,1004.92,496.43Z" transform="translate(-499.5 -67.01)" fill="#54602b" stroke="#000" stroke-miterlimit="10"/><path d="M992.05,503.77V516s10.12,10.43,11.15,12.59,0-6.3,0-6.3Z" transform="translate(-499.5 -67.01)" fill="#4e5b33" stroke="#000" stroke-miterlimit="10"/><path d="M1006.73,224.77s-15.67,2.22-18.37-3.84c0,0-12.72,7.06-13.52-13.56,0,0-21.89.15-13.73-18.72,0,0-16.86-11.58-5.12-20.11,0,0-11.17-29,16.27-28.58,0,0-3-45.45,37.13-19.05,0,0,9.26,7.69,2,17.29,0,0,16.19-4.67,11.82,12.57l-.05,5.31s11.8-2.43,4.32,4l2.49,18-3.11,9.79-.64,8.17-8.06,10.63-3.57,8.12-1.29,4.4-3.31,4Z" transform="translate(-499.5 -67.01)" fill="#fa1d24" stroke="#000" stroke-miterlimit="10"/><path d="M1007.79,224.65q-27.66-101-31.07-100.23c-.36.08-.52,1-.48,2.74Q992,175.91,1007.79,224.65Z" transform="translate(-499.5 -67.01)" fill="#ea3536"/><path d="M983.14,200.51l-2.66-4.86s17.14-12.83-9.61-16c0,0,18.61-18.37-8.19-27.57,0,0,12.33-27.15-19.3-22l-4,7.87S904,127.61,926.83,164.83c0,0-13.91,17.51,14.81,24.83a12.68,12.68,0,0,0,21.23,13.28c1.06,1.15,11.59,12.37,15.83,9.84.73-.43,1.62-1.46,1.76-4.31Z" transform="translate(-499.5 -67.01)" fill="#fa1d24" stroke="#000" stroke-miterlimit="10"/><path d="M979.51,208a246.76,246.76,0,0,1-35.26-50c-3.31-6.21-6.24-12.31-8.81-18.22-1.5-1-4-2.36-5.14-1.35-1,.84-1,3.32.93,9.3,1.94,5.83,6,15.48,15.18,28.84l12.14,12.19,10,10.21Z" transform="translate(-499.5 -67.01)" fill="#ea3536"/><path d="M1034.2,236.49S1013,232,1018.12,216.67c0,0-17.12-7.73-6.07-25,0,0-11.59-11.78-.21-21.78,0,0-6.4-29,19.56-24.46S1034.2,236.49,1034.2,236.49Z" transform="translate(-499.5 -67.01)" fill="#ea3536"/><path d="M1042.82,240.5s-14.52-6.29-13.66-12.87c0,0-14.53-.63-4.45-18.63,0,0-18.74-11.3-1.92-23.13,0,0-8.34-18.68,6.14-19.82,0,0,5.6-30.54,28.8-15.87,0,0,21.2-40.32,41.61,3.15,0,0,3.88,11.39-7.32,15.79,0,0,16.24,4.47,3.52,16.89l-2.82,4.51s11.33,4.09,1.58,5.67L1087,212.87l-7.76,6.72-4.82,6.64L1062,231.08l-7.28,5-3.4,3.08-4.9,1.66Z" transform="translate(-499.5 -67.01)" fill="#fa1d24" stroke="#000" stroke-miterlimit="10"/><path d="M1043.78,241q29.21-100.6,25.87-101.7c-.35-.11-1,.58-1.84,2.09Z" transform="translate(-499.5 -67.01)" fill="#ea3536"/><path d="M1061.37,248.46l4.92-2.54s12.41,17.44,16.18-9.23c0,0,17.92,19,27.76-7.53,0,0,26.85,13,22.46-18.77l-7.78-4.18S1136.13,171,1098.38,193c0,0-17.17-14.33-25.17,14.21,0,0-27-3.34-15.2,24.2-6.6,5-10.12,9.85-8.81,12.3.31.59,1.2,1.59,4.28,1.86Z" transform="translate(-499.5 -67.01)" fill="#fa1d24" stroke="#000" stroke-miterlimit="10"/><path d="M1053.94,244.65a246.22,246.22,0,0,1,50.82-34.05c6.28-3.17,12.45-5.94,18.42-8.38,1-1.48,2.45-3.9,1.47-5.11-.82-1-3.29-1.12-9.32.72-5.88,1.79-15.62,5.59-29.2,14.48l-12.47,11.84-10.45,9.72Z" transform="translate(-499.5 -67.01)" fill="#ea3536"/><path d="M972,226.68l-9.59-17.15s33.23-10.55,72,10.82,24.53,80.44,14.51,78.85l-12.13,0Z" transform="translate(-499.5 -67.01)" fill="#ededed" stroke="#000" stroke-miterlimit="10"/><path d="M915.16,372l4,19.78L943.65,404l21-2.77,22.15-9.5,17.41-9.89,10.68-6.72,13.84-10.68,7.92-4.75c1-.67,1.1-1.18,1.08-1.48-.07-1.79-5.56-2.71-5.93-2.77a3.93,3.93,0,0,0-2.08-2.67,3.73,3.73,0,0,0-2.57-.2,4.74,4.74,0,0,0-.15-2.67c-.64-1.48-2.42-3.26-7-4.45a23.41,23.41,0,0,1-.11-12.71,22.53,22.53,0,0,1,4.86-8.65c9.6-11.22,17.65-17.68,21.28-22.25,11.14-14,6-42.13-7.83-59-9.13-11.2-20.42-15.53-27.89-18.3-30.53-11.29-59.44-1.64-70.72,2.87a25,25,0,0,0-5.54,4c-19.18,18.29-6,66,2.08,95.14a78.84,78.84,0,0,1,2,9.49c1.07,7.3,1.89,13.64.07,19.06-3.1,9.22-14.64,13.21-19.45,14.57Z" transform="translate(-499.5 -67.01)" fill="#ededed" stroke="#000" stroke-miterlimit="10"/><polygon points="487.94 202.13 494.99 224.68 450.22 237.34 419.54 240.9 412.7 223.69 414.77 211.43 416.23 202.92 420.58 191.84 427 184.72 434.67 184.72 456.02 192.04 475.71 198.77 487.94 202.13"/><path d="M976.29,260.7s-12.92,22.18,0,39.59l6.33-1.67a32.74,32.74,0,0,1,.92-34Z" transform="translate(-499.5 -67.01)" fill="#fff" stroke="#000" stroke-miterlimit="10"/><path d="M916.22,257s-12.92,24.52,0,43.78l6.33-1.85a39.5,39.5,0,0,1,.92-37.62Z" transform="translate(-499.5 -67.01)" fill="#fff" stroke="#000" stroke-miterlimit="10"/><path d="M935.9,258.11s-12.92,24.53,0,43.78l6.33-1.84a39.5,39.5,0,0,1,.92-37.62Z" transform="translate(-499.5 -67.01)" fill="#fff" stroke="#000" stroke-miterlimit="10"/><path d="M956.13,258.11s-12.93,24.53,0,43.78l6.33-1.84a39.5,39.5,0,0,1,.92-37.62Z" transform="translate(-499.5 -67.01)" fill="#fff" stroke="#000" stroke-miterlimit="10"/><path d="M930.3,233.24a38.8,38.8,0,0,0-10.65,6.89,36.17,36.17,0,0,0-7.85,11.3,4.73,4.73,0,0,0-.49,2.77c.72,4,8.08,5.38,8.8,5.51l20.37,7.65,13.85,3.56,16.42,3h17.6l-4.94-6.13L957,249.36l-12.82-7.12c-1.09-5.06-4.46-8.86-8.58-9.63A9.41,9.41,0,0,0,930.3,233.24Z" transform="translate(-499.5 -67.01)" fill="#fff" stroke="#000" stroke-miterlimit="10"/><path d="M927,324.65A16.37,16.37,0,0,1,923,322s-11.55-8.79-13-19.77a2.76,2.76,0,0,1,.2-1.6c.79-1.58,3.29-1.81,5.28-2,3.23-.26,6.8-.5,10.68-.66l63.74-12,5.26.28q-1.26,2.84-2.54,5.67A167.37,167.37,0,0,1,969,309.09c-11.75,7.05-9.65,3.15-24.23,10.92C938.65,323.25,932.82,326.79,927,324.65Z" transform="translate(-499.5 -67.01)" fill="#fff" stroke="#000" stroke-miterlimit="10"/><circle cx="421.12" cy="240.35" r="3.23" fill="#fff" stroke="#000" stroke-miterlimit="10"/><circle cx="435.02" cy="239.17" r="2.97" fill="#fff" stroke="#000" stroke-miterlimit="10"/><circle cx="448.34" cy="236.2" r="2.74" fill="#fff" stroke="#000" stroke-miterlimit="10"/><circle cx="463.49" cy="232.54" r="2.74" fill="#fff" stroke="#000" stroke-miterlimit="10"/><path d="M992.58,288.23a140.28,140.28,0,0,1-69.2,34.38l3.43,4.49a106,106,0,0,0,30.82-6.87,107.33,107.33,0,0,0,41-28.49Z" transform="translate(-499.5 -67.01)" fill="#ededed" stroke="#000" stroke-miterlimit="10"/><path d="M990.77,280.94a277.86,277.86,0,0,1-35.86,10.59A279.58,279.58,0,0,1,905.19,298l3.95,5.72c11.54-.85,24.09-2.3,37.45-4.62a384.89,384.89,0,0,0,46-10.91Q991.67,284.59,990.77,280.94Z" transform="translate(-499.5 -67.01)" fill="#ededed" stroke="#000" stroke-miterlimit="10"/><path d="M992.75,275.27a181.23,181.23,0,0,1-81.1-22.81,2.94,2.94,0,0,0-1.79,5.32,174.37,174.37,0,0,0,34.49,14.59,196.13,196.13,0,0,0,26.37,5.8c7.95,1.21,14.86,1.78,20.3,2.06Q991.88,277.76,992.75,275.27Z" transform="translate(-499.5 -67.01)" fill="#ededed" stroke="#000" stroke-miterlimit="10"/><path d="M1001,272.81A260.87,260.87,0,0,1,938,232.55a4.68,4.68,0,0,0-5.29.07,4.83,4.83,0,0,0-1.83,3.88,225.81,225.81,0,0,0,25.91,20.38,222,222,0,0,0,21.32,12.7c7.22,3.74,13.57,6.5,18.44,8.46Z" transform="translate(-499.5 -67.01)" fill="#ededed" stroke="#000" stroke-miterlimit="10"/><circle cx="501.76" cy="213.25" r="11.8" fill="#ededed" stroke="#000" stroke-miterlimit="10"/><circle cx="501.76" cy="213.25" r="7.45" fill="#ededed" stroke="#000" stroke-miterlimit="10"/><circle cx="455.59" cy="196.43" r="2.74" fill="#fff" stroke="#000" stroke-miterlimit="10"/><circle cx="442.64" cy="192.04" r="2.97" fill="#fff" stroke="#000" stroke-miterlimit="10"/><circle cx="430.37" cy="186.5" r="3.23" fill="#fff" stroke="#000" stroke-miterlimit="10"/><circle cx="419.33" cy="182.19" r="2.6" fill="#fff" stroke="#000" stroke-miterlimit="10"/></svg>